<svg viewBox="0 0 64 64" xmlns="http://www.w3.org/2000/svg" shape-rendering="crispEdges">
<title>Daibutsu Crown (rare)</title>
<rect x="16" y="8" width="32" height="4" fill="#2a1a0c"/>
<rect x="12" y="12" width="4" height="4" fill="#2a1a0c"/>
<rect x="16" y="12" width="32" height="4" fill="#c8a850"/>
<rect x="48" y="12" width="4" height="4" fill="#2a1a0c"/>
<rect x="8" y="16" width="4" height="4" fill="#2a1a0c"/>
<rect x="12" y="16" width="4" height="4" fill="#c8a850"/>
<rect x="16" y="16" width="28" height="4" fill="#e8d080"/>
<rect x="44" y="16" width="4" height="4" fill="#c8a850"/>
<rect x="48" y="16" width="4" height="4" fill="#e8d080"/>
<rect x="52" y="16" width="4" height="4" fill="#2a1a0c"/>
<rect x="8" y="20" width="4" height="4" fill="#2a1a0c"/>
<rect x="12" y="20" width="4" height="4" fill="#c8a850"/>
<rect x="16" y="20" width="28" height="4" fill="#e8d080"/>
<rect x="44" y="20" width="4" height="4" fill="#c8a850"/>
<rect x="48" y="20" width="4" height="4" fill="#e8d080"/>
<rect x="52" y="20" width="4" height="4" fill="#2a1a0c"/>
<rect x="8" y="24" width="4" height="4" fill="#2a1a0c"/>
<rect x="12" y="24" width="8" height="4" fill="#c8a850"/>
<rect x="20" y="24" width="24" height="4" fill="#e8d080"/>
<rect x="44" y="24" width="8" height="4" fill="#c8a850"/>
<rect x="52" y="24" width="4" height="4" fill="#2a1a0c"/>
<rect x="8" y="28" width="4" height="4" fill="#2a1a0c"/>
<rect x="12" y="28" width="12" height="4" fill="#c8a850"/>
<rect x="24" y="28" width="16" height="4" fill="#e8d080"/>
<rect x="40" y="28" width="8" height="4" fill="#c8a850"/>
<rect x="48" y="28" width="4" height="4" fill="#2a1a0c"/>
<rect x="8" y="32" width="8" height="4" fill="#2a1a0c"/>
<rect x="16" y="32" width="4" height="4" fill="#c8a850"/>
<rect x="20" y="32" width="20" height="4" fill="#e8d080"/>
<rect x="40" y="32" width="8" height="4" fill="#c8a850"/>
<rect x="48" y="32" width="8" height="4" fill="#2a1a0c"/>
<rect x="8" y="36" width="4" height="4" fill="#2a1a0c"/>
<rect x="12" y="36" width="8" height="4" fill="#c8a850"/>
<rect x="20" y="36" width="20" height="4" fill="#e8d080"/>
<rect x="40" y="36" width="8" height="4" fill="#c8a850"/>
<rect x="48" y="36" width="4" height="4" fill="#2a1a0c"/>
<rect x="8" y="40" width="4" height="4" fill="#2a1a0c"/>
<rect x="12" y="40" width="8" height="4" fill="#c8a850"/>
<rect x="20" y="40" width="20" height="4" fill="#e8d080"/>
<rect x="40" y="40" width="8" height="4" fill="#c8a850"/>
<rect x="48" y="40" width="4" height="4" fill="#2a1a0c"/>
<rect x="12" y="44" width="4" height="4" fill="#2a1a0c"/>
<rect x="16" y="44" width="4" height="4" fill="#a07828"/>
<rect x="20" y="44" width="20" height="4" fill="#c8a850"/>
<rect x="40" y="44" width="4" height="4" fill="#a07828"/>
<rect x="44" y="44" width="8" height="4" fill="#2a1a0c"/>
<rect x="12" y="48" width="36" height="4" fill="#2a1a0c"/>
</svg>
