<svg viewBox="0 0 64 64" xmlns="http://www.w3.org/2000/svg" shape-rendering="crispEdges">
<title>Dejima Dutch Saber (epic)</title>
<rect x="16" y="8" width="4" height="4" fill="#2a1a0c"/>
<rect x="12" y="12" width="4" height="4" fill="#2a1a0c"/>
<rect x="16" y="12" width="4" height="4" fill="#c8a850"/>
<rect x="20" y="12" width="4" height="4" fill="#2a1a0c"/>
<rect x="8" y="16" width="4" height="4" fill="#2a1a0c"/>
<rect x="12" y="16" width="4" height="4" fill="#c8a850"/>
<rect x="16" y="16" width="4" height="4" fill="#e8d070"/>
<rect x="20" y="16" width="4" height="4" fill="#c8a850"/>
<rect x="24" y="16" width="4" height="4" fill="#2a1a0c"/>
<rect x="4" y="20" width="4" height="4" fill="#2a1a0c"/>
<rect x="8" y="20" width="4" height="4" fill="#c8a850"/>
<rect x="12" y="20" width="4" height="4" fill="#e8d070"/>
<rect x="16" y="20" width="4" height="4" fill="#c8a850"/>
<rect x="20" y="20" width="4" height="4" fill="#e8d070"/>
<rect x="24" y="20" width="4" height="4" fill="#c8a850"/>
<rect x="28" y="20" width="4" height="4" fill="#2a1a0c"/>
<rect x="4" y="24" width="4" height="4" fill="#2a1a0c"/>
<rect x="8" y="24" width="4" height="4" fill="#c8a850"/>
<rect x="12" y="24" width="4" height="4" fill="#e8d070"/>
<rect x="16" y="24" width="4" height="4" fill="#f5f0c0"/>
<rect x="20" y="24" width="4" height="4" fill="#e8d070"/>
<rect x="24" y="24" width="4" height="4" fill="#c8a850"/>
<rect x="28" y="24" width="4" height="4" fill="#2a1a0c"/>
<rect x="8" y="28" width="4" height="4" fill="#2a1a0c"/>
<rect x="12" y="28" width="4" height="4" fill="#c8a850"/>
<rect x="16" y="28" width="4" height="4" fill="#e8d070"/>
<rect x="20" y="28" width="4" height="4" fill="#c8a850"/>
<rect x="24" y="28" width="4" height="4" fill="#e8d070"/>
<rect x="28" y="28" width="4" height="4" fill="#c8a850"/>
<rect x="32" y="28" width="4" height="4" fill="#2a1a0c"/>
<rect x="12" y="32" width="4" height="4" fill="#2a1a0c"/>
<rect x="16" y="32" width="4" height="4" fill="#c8a850"/>
<rect x="20" y="32" width="4" height="4" fill="#e8d070"/>
<rect x="24" y="32" width="4" height="4" fill="#c8a850"/>
<rect x="28" y="32" width="4" height="4" fill="#e8d070"/>
<rect x="32" y="32" width="4" height="4" fill="#c8a850"/>
<rect x="36" y="32" width="4" height="4" fill="#2a1a0c"/>
<rect x="16" y="36" width="4" height="4" fill="#2a1a0c"/>
<rect x="20" y="36" width="4" height="4" fill="#c8a850"/>
<rect x="24" y="36" width="4" height="4" fill="#e8d070"/>
<rect x="28" y="36" width="4" height="4" fill="#c8a850"/>
<rect x="32" y="36" width="4" height="4" fill="#e8d070"/>
<rect x="36" y="36" width="4" height="4" fill="#c8a850"/>
<rect x="40" y="36" width="4" height="4" fill="#2a1a0c"/>
<rect x="20" y="40" width="4" height="4" fill="#2a1a0c"/>
<rect x="24" y="40" width="4" height="4" fill="#c8a850"/>
<rect x="28" y="40" width="4" height="4" fill="#7090b0"/>
<rect x="32" y="40" width="4" height="4" fill="#e8d070"/>
<rect x="36" y="40" width="4" height="4" fill="#c8a850"/>
<rect x="40" y="40" width="4" height="4" fill="#2a1a0c"/>
<rect x="24" y="44" width="4" height="4" fill="#2a1a0c"/>
<rect x="28" y="44" width="4" height="4" fill="#b0c8e0"/>
<rect x="32" y="44" width="4" height="4" fill="#7090b0"/>
<rect x="36" y="44" width="4" height="4" fill="#c8a850"/>
<rect x="40" y="44" width="4" height="4" fill="#2a1a0c"/>
<rect x="28" y="48" width="4" height="4" fill="#2a1a0c"/>
<rect x="32" y="48" width="4" height="4" fill="#3a5878"/>
<rect x="36" y="48" width="4" height="4" fill="#7090b0"/>
<rect x="40" y="48" width="4" height="4" fill="#2a1a0c"/>
<rect x="32" y="52" width="4" height="4" fill="#2a1a0c"/>
<rect x="36" y="52" width="4" height="4" fill="#5a3a1a"/>
<rect x="40" y="52" width="4" height="4" fill="#2a1a0c"/>
<rect x="36" y="56" width="4" height="4" fill="#2a1a0c"/>
</svg>
