<svg viewBox="0 0 64 64" shape-rendering="crispEdges" xmlns="http://www.w3.org/2000/svg">
<title>Kobe Beef Chef Robe</title>
<g id="chef_robe">
<rect x="20" y="8" width="24" height="4" fill="#ffffff"/>
<rect x="16" y="12" width="32" height="28" fill="#ffffff"/>
<rect x="12" y="12" width="4" height="20" fill="#ffffff"/>
<rect x="52" y="12" width="4" height="20" fill="#ffffff"/>
<rect x="20" y="8" width="2" height="36" fill="#4d8fbf"/>
<rect x="42" y="8" width="2" height="36" fill="#4d8fbf"/>
<rect x="16" y="40" width="32" height="2" fill="#4d8fbf"/>
<rect x="18" y="14" width="4" height="4" fill="#d4a574"/>
<rect x="42" y="14" width="4" height="4" fill="#d4a574"/>
<rect x="28" y="18" width="8" height="6" fill="#8b6f47"/>
<rect x="26" y="24" width="12" height="12" fill="#c0a080"/>
<rect x="20" y="28" width="4" height="8" fill="#d4a574"/>
<rect x="40" y="28" width="4" height="8" fill="#d4a574"/>
<rect x="22" y="10" width="2" height="2" fill="#4d8fbf"/>
<rect x="40" y="10" width="2" height="2" fill="#4d8fbf"/>
<rect x="31" y="36" width="2" height="4" fill="#666666"/>
</g>
</svg>