<svg viewBox="0 0 64 64" xmlns="http://www.w3.org/2000/svg" shape-rendering="crispEdges">
  <title>Yonezawa Silk Robe</title>
  <g id="frame">
    <rect x="4" y="0" width="56" height="4" fill="#4d8fbf"/>
    <rect x="0" y="4" width="4" height="56" fill="#4d8fbf"/>
    <rect x="60" y="4" width="4" height="56" fill="#4d8fbf"/>
    <rect x="4" y="60" width="56" height="4" fill="#4d8fbf"/>
  </g>
  <g id="robe">
    <rect x="20" y="8" width="24" height="4" fill="#2c3e50"/>
    <rect x="16" y="12" width="8" height="4" fill="#8b6f47"/>
    <rect x="40" y="12" width="8" height="4" fill="#8b6f47"/>
    <rect x="14" y="16" width="36" height="4" fill="#d4a574"/>
    <rect x="12" y="20" width="40" height="4" fill="#e8c4a0"/>
    <rect x="12" y="24" width="40" height="4" fill="#d4a574"/>
    <rect x="12" y="28" width="40" height="4" fill="#e8c4a0"/>
    <rect x="12" y="32" width="40" height="4" fill="#d4a574"/>
    <rect x="12" y="36" width="40" height="4" fill="#e8c4a0"/>
    <rect x="14" y="40" width="36" height="4" fill="#c9945a"/>
    <rect x="20" y="44" width="24" height="4" fill="#4d8fbf"/>
    <rect x="24" y="48" width="16" height="4" fill="#3a6a94"/>
    <rect x="18" y="12" width="4" height="4" fill="#4d8fbf"/>
    <rect x="44" y="12" width="4" height="4" fill="#4d8fbf"/>
    <rect x="16" y="16" width="4" height="4" fill="#4d8fbf"/>
    <rect x="44" y="16" width="4" height="4" fill="#4d8fbf"/>
  </g>
</svg>