<svg viewBox="0 0 64 64" xmlns="http://www.w3.org/2000/svg" shape-rendering="crispEdges">
<title>Apple Orchard Sandals (common)</title>
<rect x="8" y="8" width="24" height="4" fill="#2a1a0c"/>
<rect x="36" y="8" width="24" height="4" fill="#2a1a0c"/>
<rect x="8" y="12" width="4" height="4" fill="#2a1a0c"/>
<rect x="12" y="12" width="4" height="4" fill="#c8845a"/>
<rect x="16" y="12" width="4" height="4" fill="#f0c890"/>
<rect x="20" y="12" width="8" height="4" fill="#c8845a"/>
<rect x="28" y="12" width="4" height="4" fill="#2a1a0c"/>
<rect x="36" y="12" width="4" height="4" fill="#2a1a0c"/>
<rect x="40" y="12" width="4" height="4" fill="#c8845a"/>
<rect x="44" y="12" width="4" height="4" fill="#f0c890"/>
<rect x="48" y="12" width="8" height="4" fill="#c8845a"/>
<rect x="56" y="12" width="4" height="4" fill="#2a1a0c"/>
<rect x="8" y="16" width="4" height="4" fill="#2a1a0c"/>
<rect x="12" y="16" width="16" height="4" fill="#c8845a"/>
<rect x="28" y="16" width="4" height="4" fill="#2a1a0c"/>
<rect x="36" y="16" width="4" height="4" fill="#2a1a0c"/>
<rect x="40" y="16" width="16" height="4" fill="#c8845a"/>
<rect x="56" y="16" width="4" height="4" fill="#2a1a0c"/>
<rect x="8" y="20" width="4" height="4" fill="#2a1a0c"/>
<rect x="12" y="20" width="4" height="4" fill="#c8845a"/>
<rect x="16" y="20" width="8" height="4" fill="#e8a868"/>
<rect x="24" y="20" width="4" height="4" fill="#c8845a"/>
<rect x="28" y="20" width="4" height="4" fill="#2a1a0c"/>
<rect x="36" y="20" width="4" height="4" fill="#2a1a0c"/>
<rect x="40" y="20" width="4" height="4" fill="#c8845a"/>
<rect x="44" y="20" width="8" height="4" fill="#e8a868"/>
<rect x="52" y="20" width="4" height="4" fill="#c8845a"/>
<rect x="56" y="20" width="4" height="4" fill="#2a1a0c"/>
<rect x="8" y="24" width="4" height="4" fill="#2a1a0c"/>
<rect x="12" y="24" width="4" height="4" fill="#a06040"/>
<rect x="16" y="24" width="8" height="4" fill="#e8a868"/>
<rect x="24" y="24" width="8" height="4" fill="#2a1a0c"/>
<rect x="36" y="24" width="4" height="4" fill="#2a1a0c"/>
<rect x="40" y="24" width="4" height="4" fill="#a06040"/>
<rect x="44" y="24" width="8" height="4" fill="#e8a868"/>
<rect x="52" y="24" width="8" height="4" fill="#2a1a0c"/>
<rect x="12" y="28" width="4" height="4" fill="#2a1a0c"/>
<rect x="16" y="28" width="8" height="4" fill="#a06040"/>
<rect x="24" y="28" width="8" height="4" fill="#2a1a0c"/>
<rect x="40" y="28" width="4" height="4" fill="#2a1a0c"/>
<rect x="44" y="28" width="8" height="4" fill="#a06040"/>
<rect x="52" y="28" width="8" height="4" fill="#2a1a0c"/>
<rect x="12" y="32" width="4" height="4" fill="#2a1a0c"/>
<rect x="16" y="32" width="4" height="4" fill="#7a4828"/>
<rect x="20" y="32" width="8" height="4" fill="#a06040"/>
<rect x="28" y="32" width="4" height="4" fill="#2a1a0c"/>
<rect x="40" y="32" width="4" height="4" fill="#2a1a0c"/>
<rect x="44" y="32" width="4" height="4" fill="#7a4828"/>
<rect x="48" y="32" width="8" height="4" fill="#a06040"/>
<rect x="56" y="32" width="4" height="4" fill="#2a1a0c"/>
<rect x="12" y="36" width="4" height="4" fill="#2a1a0c"/>
<rect x="16" y="36" width="12" height="4" fill="#7a4828"/>
<rect x="28" y="36" width="4" height="4" fill="#2a1a0c"/>
<rect x="40" y="36" width="4" height="4" fill="#2a1a0c"/>
<rect x="44" y="36" width="12" height="4" fill="#7a4828"/>
<rect x="56" y="36" width="4" height="4" fill="#2a1a0c"/>
<rect x="12" y="40" width="4" height="4" fill="#2a1a0c"/>
<rect x="16" y="40" width="4" height="4" fill="#5a8c3a"/>
<rect x="20" y="40" width="4" height="4" fill="#3a6020"/>
<rect x="24" y="40" width="8" height="4" fill="#2a1a0c"/>
<rect x="40" y="40" width="4" height="4" fill="#2a1a0c"/>
<rect x="44" y="40" width="4" height="4" fill="#5a8c3a"/>
<rect x="48" y="40" width="4" height="4" fill="#3a6020"/>
<rect x="52" y="40" width="8" height="4" fill="#2a1a0c"/>
<rect x="16" y="44" width="4" height="4" fill="#2a1a0c"/>
<rect x="20" y="44" width="4" height="4" fill="#5a8c3a"/>
<rect x="24" y="44" width="8" height="4" fill="#2a1a0c"/>
<rect x="44" y="44" width="4" height="4" fill="#2a1a0c"/>
<rect x="48" y="44" width="4" height="4" fill="#5a8c3a"/>
<rect x="52" y="44" width="8" height="4" fill="#2a1a0c"/>
<rect x="16" y="48" width="4" height="4" fill="#2a1a0c"/>
<rect x="20" y="48" width="4" height="4" fill="#3a6020"/>
<rect x="24" y="48" width="8" height="4" fill="#2a1a0c"/>
<rect x="44" y="48" width="4" height="4" fill="#2a1a0c"/>
<rect x="48" y="48" width="4" height="4" fill="#3a6020"/>
<rect x="52" y="48" width="8" height="4" fill="#2a1a0c"/>
<rect x="16" y="52" width="16" height="4" fill="#2a1a0c"/>
<rect x="44" y="52" width="16" height="4" fill="#2a1a0c"/>
</svg>
