<svg viewBox="0 0 64 64" xmlns="http://www.w3.org/2000/svg" shape-rendering="crispEdges">
<title>Yakushima Cedar Sandals (rare)</title>
<rect x="8" y="8" width="24" height="4" fill="#2a1a0c"/>
<rect x="40" y="8" width="24" height="4" fill="#2a1a0c"/>
<rect x="4" y="12" width="4" height="4" fill="#2a1a0c"/>
<rect x="8" y="12" width="4" height="4" fill="#c8a96e"/>
<rect x="12" y="12" width="12" height="4" fill="#e8d4a0"/>
<rect x="24" y="12" width="4" height="4" fill="#c8a96e"/>
<rect x="28" y="12" width="8" height="4" fill="#2a1a0c"/>
<rect x="36" y="12" width="4" height="4" fill="#c8a96e"/>
<rect x="40" y="12" width="8" height="4" fill="#e8d4a0"/>
<rect x="48" y="12" width="4" height="4" fill="#c8a96e"/>
<rect x="52" y="12" width="4" height="4" fill="#e8d4a0"/>
<rect x="56" y="12" width="4" height="4" fill="#2a1a0c"/>
<rect x="4" y="16" width="4" height="4" fill="#2a1a0c"/>
<rect x="8" y="16" width="4" height="4" fill="#c8a96e"/>
<rect x="12" y="16" width="4" height="4" fill="#e8d4a0"/>
<rect x="16" y="16" width="4" height="4" fill="#f0e8c8"/>
<rect x="20" y="16" width="4" height="4" fill="#e8d4a0"/>
<rect x="24" y="16" width="4" height="4" fill="#c8a96e"/>
<rect x="28" y="16" width="4" height="4" fill="#2a1a0c"/>
<rect x="32" y="16" width="4" height="4" fill="#c8a96e"/>
<rect x="36" y="16" width="4" height="4" fill="#e8d4a0"/>
<rect x="40" y="16" width="4" height="4" fill="#f0e8c8"/>
<rect x="44" y="16" width="4" height="4" fill="#e8d4a0"/>
<rect x="48" y="16" width="4" height="4" fill="#c8a96e"/>
<rect x="52" y="16" width="4" height="4" fill="#2a1a0c"/>
<rect x="4" y="20" width="4" height="4" fill="#2a1a0c"/>
<rect x="8" y="20" width="4" height="4" fill="#8b5e2a"/>
<rect x="12" y="20" width="8" height="4" fill="#c8a96e"/>
<rect x="20" y="20" width="4" height="4" fill="#e8d4a0"/>
<rect x="24" y="20" width="4" height="4" fill="#c8a96e"/>
<rect x="28" y="20" width="4" height="4" fill="#2a1a0c"/>
<rect x="32" y="20" width="8" height="4" fill="#c8a96e"/>
<rect x="40" y="20" width="4" height="4" fill="#e8d4a0"/>
<rect x="44" y="20" width="4" height="4" fill="#c8a96e"/>
<rect x="48" y="20" width="4" height="4" fill="#8b5e2a"/>
<rect x="52" y="20" width="4" height="4" fill="#2a1a0c"/>
<rect x="4" y="24" width="4" height="4" fill="#2a1a0c"/>
<rect x="8" y="24" width="12" height="4" fill="#8b5e2a"/>
<rect x="20" y="24" width="4" height="4" fill="#e8d4a0"/>
<rect x="24" y="24" width="4" height="4" fill="#c8a96e"/>
<rect x="28" y="24" width="8" height="4" fill="#2a1a0c"/>
<rect x="36" y="24" width="4" height="4" fill="#e8d4a0"/>
<rect x="40" y="24" width="12" height="4" fill="#8b5e2a"/>
<rect x="52" y="24" width="4" height="4" fill="#2a1a0c"/>
<rect x="8" y="28" width="24" height="4" fill="#2a1a0c"/>
<rect x="40" y="28" width="16" height="4" fill="#2a1a0c"/>
<rect x="8" y="32" width="20" height="4" fill="#2a1a0c"/>
<rect x="40" y="32" width="20" height="4" fill="#2a1a0c"/>
<rect x="4" y="36" width="4" height="4" fill="#2a1a0c"/>
<rect x="8" y="36" width="4" height="4" fill="#c8a96e"/>
<rect x="12" y="36" width="12" height="4" fill="#e8d4a0"/>
<rect x="24" y="36" width="4" height="4" fill="#c8a96e"/>
<rect x="28" y="36" width="8" height="4" fill="#2a1a0c"/>
<rect x="36" y="36" width="4" height="4" fill="#c8a96e"/>
<rect x="40" y="36" width="12" height="4" fill="#e8d4a0"/>
<rect x="52" y="36" width="4" height="4" fill="#c8a96e"/>
<rect x="56" y="36" width="4" height="4" fill="#2a1a0c"/>
<rect x="4" y="40" width="4" height="4" fill="#2a1a0c"/>
<rect x="8" y="40" width="4" height="4" fill="#c8a96e"/>
<rect x="12" y="40" width="4" height="4" fill="#e8d4a0"/>
<rect x="16" y="40" width="4" height="4" fill="#f0e8c8"/>
<rect x="20" y="40" width="4" height="4" fill="#e8d4a0"/>
<rect x="24" y="40" width="4" height="4" fill="#c8a96e"/>
<rect x="28" y="40" width="4" height="4" fill="#2a1a0c"/>
<rect x="32" y="40" width="4" height="4" fill="#c8a96e"/>
<rect x="36" y="40" width="4" height="4" fill="#e8d4a0"/>
<rect x="40" y="40" width="4" height="4" fill="#f0e8c8"/>
<rect x="44" y="40" width="4" height="4" fill="#e8d4a0"/>
<rect x="48" y="40" width="4" height="4" fill="#c8a96e"/>
<rect x="52" y="40" width="4" height="4" fill="#2a1a0c"/>
<rect x="4" y="44" width="4" height="4" fill="#2a1a0c"/>
<rect x="8" y="44" width="4" height="4" fill="#8b5e2a"/>
<rect x="12" y="44" width="8" height="4" fill="#c8a96e"/>
<rect x="20" y="44" width="4" height="4" fill="#e8d4a0"/>
<rect x="24" y="44" width="4" height="4" fill="#c8a96e"/>
<rect x="28" y="44" width="4" height="4" fill="#2a1a0c"/>
<rect x="32" y="44" width="8" height="4" fill="#c8a96e"/>
<rect x="40" y="44" width="4" height="4" fill="#e8d4a0"/>
<rect x="44" y="44" width="4" height="4" fill="#c8a96e"/>
<rect x="48" y="44" width="4" height="4" fill="#8b5e2a"/>
<rect x="52" y="44" width="4" height="4" fill="#2a1a0c"/>
<rect x="4" y="48" width="4" height="4" fill="#2a1a0c"/>
<rect x="8" y="48" width="12" height="4" fill="#8b5e2a"/>
<rect x="20" y="48" width="4" height="4" fill="#e8d4a0"/>
<rect x="24" y="48" width="4" height="4" fill="#c8a96e"/>
<rect x="28" y="48" width="8" height="4" fill="#2a1a0c"/>
<rect x="36" y="48" width="4" height="4" fill="#e8d4a0"/>
<rect x="40" y="48" width="12" height="4" fill="#8b5e2a"/>
<rect x="52" y="48" width="4" height="4" fill="#2a1a0c"/>
<rect x="8" y="52" width="24" height="4" fill="#2a1a0c"/>
<rect x="40" y="52" width="16" height="4" fill="#2a1a0c"/>
</svg>
